HIERARCHY
ROOT Hips
{
	OFFSET	0.00	0.00	0.00
	CHANNELS 6 Xposition Yposition Zposition Zrotation Xrotation Yrotation
	JOINT LeftUpLeg
	{
		OFFSET	 0.126116	-0.065224	 0.014019
		CHANNELS 3 Zrotation Xrotation Yrotation
		JOINT LeftLeg
		{
			OFFSET	 0.000000	 0.569914	 0.000000
			CHANNELS 3 Zrotation Xrotation Yrotation
			JOINT LeftFoot
			{
				OFFSET	 0.000000	 0.544423	 0.000000
				CHANNELS 3 Zrotation Xrotation Yrotation
				JOINT LeftToeBase
				{
					OFFSET	 0.000000	 0.207117	 0.000000
					CHANNELS 3 Zrotation Xrotation Yrotation
					End Site
					{
						OFFSET	 0.000000	 0.207117	 0.000000
					}
				}
			}
		}
	}
	JOINT RightUpLeg
	{
		OFFSET	-0.124023	-0.065224	 0.008373
		CHANNELS 3 Zrotation Xrotation Yrotation
		JOINT RightLeg
		{
			OFFSET	 0.000000	 0.570047	 0.000000
			CHANNELS 3 Zrotation Xrotation Yrotation
			JOINT RightFoot
			{
				OFFSET	 0.000000	 0.544354	 0.000000
				CHANNELS 3 Zrotation Xrotation Yrotation
				JOINT RightToeBase
				{
					OFFSET	 0.000000	 0.207540	 0.000000
					CHANNELS 3 Zrotation Xrotation Yrotation
					End Site
					{
						OFFSET	 0.000000	 0.207540	 0.000000
					}
				}
			}
		}
	}
	JOINT Spine
	{
		OFFSET	 0.000184	 0.117403	 0.007763
		CHANNELS 3 Zrotation Xrotation Yrotation
		JOINT Spine1
		{
			OFFSET	 0.000000	 0.137269	 0.000000
			CHANNELS 3 Zrotation Xrotation Yrotation
			JOINT Spine2
			{
				OFFSET	 0.000000	 0.156879	 0.000000
				CHANNELS 3 Zrotation Xrotation Yrotation
				JOINT LeftShoulder
				{
					OFFSET	 0.080501	 0.160143	 0.002496
					CHANNELS 3 Zrotation Xrotation Yrotation
					JOINT LeftArm
					{
						OFFSET	 0.000000	 0.164363	 0.000000
						CHANNELS 3 Zrotation Xrotation Yrotation
						JOINT LeftForeArm
						{
							OFFSET	 0.000000	 0.364576	 0.000000
							CHANNELS 3 Zrotation Xrotation Yrotation
							JOINT LeftHand
							{
								OFFSET	 0.000000	 0.360812	 0.000000
								CHANNELS 3 Zrotation Xrotation Yrotation
								JOINT LeftHandIndex1
								{
									OFFSET	 0.000000	 0.086006	 0.000000
									CHANNELS 3 Zrotation Xrotation Yrotation
									JOINT LeftHandIndex2
									{
										OFFSET	 0.000000	 0.047237	 0.000000
										CHANNELS 3 Zrotation Xrotation Yrotation
										JOINT LeftHandIndex3
										{
											OFFSET	-0.004284	 0.038165	 0.000551
											CHANNELS 3 Zrotation Xrotation Yrotation
											End Site
											{
												OFFSET	-0.004284	 0.038165	 0.000551
											}
										}
									}
								}
							}
						}
					}
				}
				JOINT Neck
				{
					OFFSET	 0.000000	 0.176489	 0.000000
					CHANNELS 3 Zrotation Xrotation Yrotation
					JOINT Head
					{
						OFFSET	 0.000000	 0.077941	 0.001747
						CHANNELS 3 Zrotation Xrotation Yrotation
						End Site
						{
							OFFSET	 0.000000	 0.077941	 0.001747
						}
					}
				}
				JOINT RightShoulder
				{
					OFFSET	-0.080363	 0.159706	-0.000306
					CHANNELS 3 Zrotation Xrotation Yrotation
					JOINT RightArm
					{
						OFFSET	 0.000000	 0.164196	 0.000000
						CHANNELS 3 Zrotation Xrotation Yrotation
						JOINT RightForeArm
						{
							OFFSET	 0.000000	 0.365611	 0.000000
							CHANNELS 3 Zrotation Xrotation Yrotation
							JOINT RightHand
							{
								OFFSET	 0.000000	 0.360648	 0.000000
								CHANNELS 3 Zrotation Xrotation Yrotation
								JOINT RightHandIndex1
								{
									OFFSET	 0.000000	 0.069977	 0.000000
									CHANNELS 3 Zrotation Xrotation Yrotation
									JOINT RightHandIndex2
									{
										OFFSET	 0.000000	 0.052305	 0.000000
										CHANNELS 3 Zrotation Xrotation Yrotation
										JOINT RightHandIndex3
										{
											OFFSET	 0.009002	 0.042196	 0.000782
											CHANNELS 3 Zrotation Xrotation Yrotation
											End Site
											{
												OFFSET	 0.009002	 0.042196	 0.000782
											}
										}
									}
								}
							}
						}
					}
				}
			}
		}
	}
}
MOTION
Frames:    13
Frame Time: 0.03333334
-0.017971	 1.255455	 0.115010	 5.003568	 0.315057	 173.935500	-178.021400	 16.712590	 23.421050	 2.932114	-29.021830	 1.334856	 50.924330	 48.617920	-67.793410	 4.912823	 28.009650	-6.307259	-167.501200	 2.028092	-16.562660	-1.272485	-14.449310	 2.019141	-55.708300	 55.413200	 58.014450	-0.375444	 31.170380	 1.631998	 1.458846	 3.767423	-14.752670	 9.993602	 10.179690	-8.257401	-8.635933	-8.430717	 25.425280	-112.572800	 3.140134	 88.315790	-11.192080	 50.046460	 35.842690	 30.149560	-1.517049	 0.976911	-26.658230	-4.248964	-96.058860	-8.025439	 12.502670	-5.831190	-7.228703	 12.665640	 2.804234	 4.963066	-4.014628	-0.346955	 1.528192	-13.929950	 1.347994	-2.160462	 8.650067	-21.676490	 109.137600	 0.665483	-88.590520	-13.191250	 68.020710	 12.597120	-5.083771	-0.469798	 41.403060	-17.089850	 17.321900	-101.704000	 2.021950	 8.325932	 8.960834	 15.202860	 20.243160	-6.342599	-8.239867	-2.131385	 0.447455
-0.018234	 1.257590	 0.114822	 5.076797	 0.308585	 173.937700	-178.080200	 16.672820	 23.951740	 2.938102	-29.071310	 1.339635	 50.426190	 48.597320	-67.485240	 4.912823	 28.009650	-6.307258	-167.397200	 1.931683	-17.139600	-1.258494	-14.296900	 2.017942	-54.988700	 55.122460	 57.381630	-0.375826	 31.170850	 1.632378	 1.500232	 3.728560	-14.713020	 10.358010	 10.398660	-8.332665	-9.046783	-8.768663	 25.349070	-112.570600	 3.137419	 88.315400	-12.237460	 49.460400	 36.580110	 31.730360	-1.588431	 1.019661	-26.918290	-4.180532	-95.990640	-8.022933	 12.504730	-5.831810	-7.228713	 12.665160	 2.804168	 4.963066	-4.014628	-0.346955	 1.525946	-13.926540	 1.349141	-2.170634	 8.590630	-21.713780	 109.134900	 0.667560	-88.591580	-13.170720	 68.226780	 12.567090	-5.095040	-0.470821	 41.396220	-17.710800	 17.329320	-101.590600	 2.019792	 8.320113	 8.960783	 15.202870	 20.244450	-6.342952	-8.239867	-2.131385	 0.447455
-0.018476	 1.259479	 0.114644	 5.138512	 0.299096	 173.947100	-178.139000	 16.643020	 24.432140	 2.943879	-29.119080	 1.346964	 49.985520	 48.577000	-67.213560	 4.912823	 28.009660	-6.307255	-167.306600	 1.857561	-17.646840	-1.247555	-14.177750	 2.009376	-54.371730	 54.860150	 56.847980	-0.376759	 31.171980	 1.633303	 1.538336	 3.695298	-14.680310	 10.668230	 10.579140	-8.400060	-9.399238	-9.056255	 25.280590	-112.565300	 3.130781	 88.314510	-13.107090	 48.960760	 37.175670	 33.069280	-1.648010	 1.057227	-27.161830	-4.125004	-95.899170	-8.016820	 12.509740	-5.833322	-7.228742	 12.664000	 2.804010	 4.963066	-4.014628	-0.346955	 1.520471	-13.918220	 1.351938	-2.176105	 8.557314	-21.788100	 109.128200	 0.672642	-88.594150	-12.377080	 68.497150	 11.832250	-5.698850	-0.526552	 41.374990	-18.013590	 17.166000	-101.553100	 2.014531	 8.305922	 8.960660	 15.202890	 20.247600	-6.343813	-8.239867	-2.131385	 0.447455
-0.018724	 1.261362	 0.114451	 5.196436	 0.285573	 173.963900	-178.205500	 16.619220	 24.923430	 2.950229	-29.171490	 1.357704	 49.546230	 48.554160	-66.944650	 4.912824	 28.009660	-6.307253	-167.217300	 1.796971	-18.149370	-1.238492	-14.078790	 1.992524	-53.776430	 54.595340	 56.343220	-0.378338	 31.173910	 1.634869	 1.576657	 3.663104	-14.649740	 10.964810	 10.745480	-8.466840	-9.738263	-9.330503	 25.211950	-112.556300	 3.119533	 88.312940	-13.929590	 48.481300	 37.721620	 34.355090	-1.704364	 1.094390	-27.429000	-4.074908	-95.773670	-8.006480	 12.518220	-5.835880	-7.228789	 12.662030	 2.803741	 4.963066	-4.014628	-0.346955	 1.511205	-13.904140	 1.356673	-2.177861	 8.545422	-21.903580	 109.117000	 0.681206	-88.598530	-7.571037	 69.132320	 7.365129	-9.260365	-0.853141	 41.304350	-17.042390	 16.165430	-101.802000	 2.005629	 8.281912	 8.960450	 15.202920	 20.252930	-6.345271	-8.239867	-2.131385	 0.447455
-0.018981	 1.263232	 0.114240	 5.249311	 0.267057	 173.990300	-178.282100	 16.603590	 25.427950	 2.957386	-29.230470	 1.372790	 49.109040	 48.529080	-66.679660	 4.912825	 28.009670	-6.307249	-167.128400	 1.754783	-18.645830	-1.232059	-14.008550	 1.965386	-53.208660	 54.329470	 55.875760	-0.380731	 31.176840	 1.637242	 1.614344	 3.632529	-14.622980	 11.243320	 10.894320	-8.532587	-10.058440	-9.587097	 25.144610	-112.542700	 3.102504	 88.310610	-14.709650	 48.025720	 38.220300	 35.590360	-1.757588	 1.131161	-27.736900	-4.031611	-95.606860	-7.990806	 12.531070	-5.839761	-7.228860	 12.659050	 2.803334	 4.963066	-4.014628	-0.346955	 1.497163	-13.882800	 1.363852	-2.175252	 8.560282	-22.064450	 109.100000	 0.694186	-88.605090	-3.873216	 69.551450	 3.933837	-11.854880	-1.088970	 41.218380	-16.504820	 15.440180	-101.967700	 1.992140	 8.245525	 8.960123	 15.202980	 20.261000	-6.347479	-8.239867	-2.131385	 0.447455
-0.019232	 1.265054	 0.114004	 5.289039	 0.243230	 174.029100	-178.375800	 16.597190	 25.942910	 2.965123	-29.294400	 1.392879	 48.679280	 48.501180	-66.422370	 4.912826	 28.009670	-6.307244	-167.042900	 1.743223	-19.128760	-1.230528	-13.991900	 1.925396	-52.690040	 54.071500	 55.471330	-0.384122	 31.180980	 1.640605	 1.644908	 3.607974	-14.536700	 11.481890	 10.991210	-8.555771	-10.333350	-9.779276	 24.986310	-112.523400	 3.078362	 88.307280	-15.432340	 47.622780	 38.665480	 36.740620	-1.806519	 1.166017	-28.059670	-4.050372	-95.167820	-7.968591	 12.549280	-5.845267	-7.228961	 12.654830	 2.802758	 4.963066	-4.014628	-0.346955	 1.477261	-13.852570	 1.374033	-2.171267	 8.598797	-22.215140	 109.075900	 0.712598	-88.614450	-0.591698	 69.851390	 0.907030	-14.067690	-1.288522	 41.113590	-16.173560	 14.726950	-101.901000	 1.973027	 8.193962	 8.959646	 15.203060	 20.272440	-6.350610	-8.239867	-2.131385	 0.447455
-0.019478	 1.266829	 0.113732	 5.312882	 0.212483	 174.083100	-178.492400	 16.603050	 26.476510	 2.973995	-29.367340	 1.419652	 48.255450	 48.470230	-66.174220	 4.912827	 28.009680	-6.307236	-166.958700	 1.771898	-19.599930	-1.235618	-14.047460	 1.868982	-52.226120	 53.824540	 55.140980	-0.388802	 31.186700	 1.645246	 1.665188	 3.590701	-14.386170	 11.674010	 11.028040	-8.530510	-10.554070	-9.896296	 24.730640	-112.496800	 3.045044	 88.302730	-16.108210	 47.277530	 39.063740	 37.814120	-1.851460	 1.199079	-28.422500	-4.139462	-94.421700	-7.937934	 12.574390	-5.852877	-7.229101	 12.649000	 2.801962	 4.963066	-4.014628	-0.346955	 1.449796	-13.810860	 1.388098	-2.165423	 8.666618	-22.357890	 109.042700	 0.738008	-88.627290	 2.505303	 70.062530	-1.920758	-16.095240	-1.469570	 40.983310	-15.965240	 13.958990	-101.608200	 1.946656	 8.122814	 8.958959	 15.203160	 20.288220	-6.354930	-8.239867	-2.131385	 0.447455
-0.019733	 1.268522	 0.113408	 5.321770	 0.172980	 174.155700	-178.632800	 16.625970	 27.026820	 2.984642	-29.455100	 1.454408	 47.845520	 48.438480	-65.942190	 4.912829	 28.009700	-6.307226	-166.874000	 1.845240	-20.050990	-1.247983	-14.182400	 1.793730	-51.827550	 53.593330	 54.897160	-0.395014	 31.194290	 1.651407	 1.675040	 3.577141	-14.217410	 11.818360	 11.019790	-8.481599	-10.718460	-9.954647	 24.445420	-112.461500	 3.000838	 88.296730	-16.741230	 46.987720	 39.414550	 38.812030	-1.892594	 1.230033	-28.875030	-4.270340	-93.507590	-7.897238	 12.607730	-5.862998	-7.229285	 12.641260	 2.800905	 4.963066	-4.014628	-0.346955	 1.413335	-13.755510	 1.406791	-2.154317	 8.776711	-22.535620	 108.998500	 0.771748	-88.644370	 5.444856	 70.201320	-4.566082	-17.973670	-1.635613	 40.824300	-15.827160	 13.194470	-101.244200	 1.911663	 8.028386	 8.957996	 15.203300	 20.309170	-6.360662	-8.239867	-2.131385	 0.447455
-0.020000	 1.270142	 0.113008	 5.309596	 0.120714	 174.253100	-178.805800	 16.669880	 27.604410	 2.997147	-29.557600	 1.498955	 47.445470	 48.405220	-65.724090	 4.912833	 28.009710	-6.307212	-166.789700	 1.974981	-20.483460	-1.269335	-14.414950	 1.695421	-51.501300	 53.379470	 54.753320	-0.403156	 31.204240	 1.659482	 1.668197	 3.564869	-14.028820	 11.905830	 10.960410	-8.405617	-10.816750	-9.945922	 24.128280	-112.415300	 2.942895	 88.288880	-17.339520	 46.756340	 39.719950	 39.738650	-1.930322	 1.258846	-29.443700	-4.456206	-92.393810	-7.843896	 12.651390	-5.876300	-7.229527	 12.631120	 2.799521	 4.963066	-4.014628	-0.346955	 1.365545	-13.683010	 1.431334	-2.136601	 8.938889	-22.756090	 108.940800	 0.815986	-88.666670	 8.300854	 70.275450	-7.086589	-19.761240	-1.791983	 40.629280	-15.740860	 12.414670	-100.807900	 1.865820	 7.904655	 8.956648	 15.203500	 20.336610	-6.368176	-8.239867	-2.131385	 0.447455
-0.020293	 1.271657	 0.112497	 5.274012	 0.053875	 174.380100	-179.019700	 16.740380	 28.217100	 3.012888	-29.686370	 1.555695	 47.060860	 48.373370	-65.528590	 4.912836	 28.009730	-6.307194	-166.702300	 2.173410	-20.894270	-1.302218	-14.772340	 1.569857	-51.261770	 53.191310	 54.731220	-0.413659	 31.217060	 1.669898	 1.642546	 3.556147	-13.818460	 11.926570	 10.842960	-8.297728	-10.836570	-9.860277	 23.778060	-112.355600	 2.868166	 88.278840	-17.910250	 46.589840	 39.981260	 40.594490	-1.964638	 1.285167	-30.156070	-4.715857	-91.048780	-7.775081	 12.707680	-5.893517	-7.229841	 12.618050	 2.797737	 4.963066	-4.014628	-0.346955	 1.303892	-13.589530	 1.463063	-2.110558	 9.164199	-23.027320	 108.866300	 0.873035	-88.695370	 11.141760	 70.282520	-9.533454	-21.510190	-1.943300	 40.390240	-15.685840	 11.604870	-100.298900	 1.806716	 7.745095	 8.954761	 15.203750	 20.372010	-6.377868	-8.239867	-2.131385	 0.447455
-0.020640	 1.273001	 0.111827	 5.216007	-0.027786	 174.537900	-179.281900	 16.844390	 28.869000	 3.034649	-29.863920	 1.627362	 46.707230	 48.349240	-65.376070	 4.912841	 28.009760	-6.307172	-166.605600	 2.451709	-21.276430	-1.349600	-15.285050	 1.413726	-51.126360	 53.043410	 54.854160	-0.426913	 31.233220	 1.683042	 1.600739	 3.554077	-13.583260	 11.868620	 10.662460	-8.151347	-10.764390	-9.687870	 23.395910	-112.280500	 2.773904	 88.266270	-18.458600	 46.496250	 40.199300	 41.375980	-1.995529	 1.308748	-31.032740	-5.073164	-89.447490	-7.688238	 12.778640	-5.915338	-7.230236	 12.601560	 2.795485	 4.963066	-4.014628	-0.346955	 1.226086	-13.471690	 1.503215	-2.074231	 9.462862	-23.356050	 108.772400	 0.945069	-88.731480	 14.026880	 70.211790	-11.949400	-23.264780	-2.093230	 40.099260	-15.641660	 10.756260	-99.716870	 1.732190	 7.543833	 8.952145	 15.204080	 20.416640	-6.390094	-8.239867	-2.131385	 0.447455
-0.021066	 1.274129	 0.110939	 5.132499	-0.126622	 174.733000	-179.603800	 16.988220	 29.569040	 3.064419	-30.105810	 1.716585	 46.392670	 48.338880	-65.277720	 4.912847	 28.009790	-6.307145	-166.497600	 2.820395	-21.625840	-1.414023	-15.977930	 1.223534	-51.110820	 52.944420	 55.144700	-0.443403	 31.253320	 1.699396	 1.541557	 3.560675	-13.319340	 11.717550	 10.412100	-7.960584	-10.585570	-9.418971	 22.980140	-112.187000	 2.656654	 88.250820	-18.991660	 46.480210	 40.373750	 42.080650	-2.023000	 1.329112	-32.090560	-5.562838	-87.553920	-7.580164	 12.866850	-5.942636	-7.230731	 12.581060	 2.792687	 4.963066	-4.014628	-0.346955	 1.129260	-13.325200	 1.553349	-2.024976	 9.847116	-23.751430	 108.655600	 1.034726	-88.776200	 16.988780	 70.051870	-14.349780	-25.047820	-2.243500	 39.747280	-15.603240	 9.865294	-99.052840	 1.639539	 7.293538	 8.948524	 15.204500	 20.472160	-6.405304	-8.239867	-2.131385	 0.447455
-0.021591	 1.274973	 0.109787	 5.022475	-0.243663	 174.965600	-179.990400	 17.174610	 30.312970	 3.103623	-30.422630	 1.823856	 46.132560	 48.347500	-65.248790	 4.912854	 28.009830	-6.307111	-166.381000	 3.279015	-21.932310	-1.495972	-16.852500	 1.000949	-51.224750	 52.903610	 55.610030	-0.463249	 31.277500	 1.719078	 1.466469	 3.576607	-13.026420	 11.460610	 10.091970	-7.722953	-10.289990	-9.051287	 22.536730	-112.074600	 2.515611	 88.232490	-19.507320	 46.543690	 40.501110	 42.694180	-2.046560	 1.345775	-33.312470	-6.217105	-85.373360	-7.450083	 12.972870	-5.975707	-7.231324	 12.556390	 2.789320	 4.963066	-4.014628	-0.346955	 1.012710	-13.149140	 1.613942	-1.960746	 10.320200	-24.214250	 108.515300	 1.142662	-88.829750	 19.988530	 69.794590	-16.690980	-26.840500	-2.392438	 39.333690	-15.568900	 8.948356	-98.309790	 1.528151	 6.992507	 8.943632	 15.205040	 20.538920	-6.423604	-8.239867	-2.131385	 0.447455
